<?xml version="1.0" encoding="utf-8"?>
<!-- Generator: Adobe Illustrator 25.4.1, SVG Export Plug-In . SVG Version: 6.00 Build 0)  -->
<svg version="1.1" id="Layer_1" xmlns="http://www.w3.org/2000/svg" xmlns:xlink="http://www.w3.org/1999/xlink" x="0px" y="0px"
	 viewBox="0 0 84.9 70.5" style="enable-background:new 0 0 84.9 70.5;" xml:space="preserve">
<style type="text/css">
	.st0{fill:#C9B100;}
</style>
<g transform="translate(-124.63 -113.37)">
	<path class="st0" d="M171.7,114.9c-3,9.8,10.3,16,9.3,19.2c-5.3,2-11.2-0.9-16.8,0.7c-4.6-0.3-9.1,0.8-13.1,2.8
		c-4.9,1.6-8.1,5.7-11.9,9c-2.8,1.3-3.6,5-5.4,6.4c-2.9-0.4-10-0.2-6.4,5.1c1,1.9,4.6,5.1,6.1,3.6c-1.9,2.3-3.8,1.1-5,3.9
		c-1.7,3.3-2,7.3-3.6,10.6c-0.4,2.4,0.2,8.9,3.2,7.4c5.8-3.6,1.4-15.7,15.4-14.5c3.7-0.3,6.2-3.6,9-5.7c2.2-0.7,4.8-2.2,6.6-3.3
		c4.2-2.2,18.8-4.7,20-4c4.3,1.2,9,0.8,13.2,2.5c2.2,1.2,9,4.5,8.4-0.1c-0.3-2-5.4-4.4-0.9-3.2c3.1,0.4,7.9,3.2,9.8-0.4
		c-0.2-3.9-4.1-1.5-6-2.8c-2-0.7-2.9-1.4-5.4-1.9c-4.8-0.6-0.8-4,2.1-3.9c4.7-0.2,3.2-6.8,1.3-9c-2-4.2-6.3-6.4-10.6-7.5
		c-1.9-3.9-3.4-8.1-6.2-11.4c-1.9-1.9-6.4-3.6-8.1-1.8C175.8,117,173.1,110.6,171.7,114.9L171.7,114.9z"/>
</g>
</svg>
