<?xml version="1.0" encoding="utf-8"?>
<!-- Generator: Adobe Illustrator 25.4.1, SVG Export Plug-In . SVG Version: 6.00 Build 0)  -->
<svg version="1.1" id="Layer_1" xmlns="http://www.w3.org/2000/svg" xmlns:xlink="http://www.w3.org/1999/xlink" x="0px" y="0px"
	 viewBox="0 0 1024 768" style="enable-background:new 0 0 1024 768;" xml:space="preserve">
<style type="text/css">
	.st0{fill:#FFFFFF;}
</style>
<path class="st0" d="M369.3,234.7c0,0-2-17-2.6-20.2c-0.7-3.3,2.6-45.7,2.6-45.7l-0.7-18.3l3.9-15l16.3-9.8l13-18.9l19.6-22.8
	l39.8-6.5l28.7-9.8l6.5-10.4l4.6,2.6c0,0,5.9-16.3,8.5-15c2.6,1.3,7.2,0.7,7.2,0.7l21.5-24.8l9.1-7.8l-5.2-2.6c0,0,8.5-5.2,12.4-5.9
	c3.9-0.7,30,5.9,30,5.9l17,11.7c0,0,7.2,11.1,7.2,14.4c0,3.3,4.6,10.4,6.5,15.7c2,5.2,0.7,12.4,0.7,12.4l-6.5,3.9
	c0,0,7.2,6.5,6.5,9.1c-0.7,2.6-18.3,22.8-18.3,22.8l-12.4,15l-7.8-3.9l-7.8,4.6l-5.9,3.9c0,0-2,1.3,3.9,7.8
	c5.9,6.5,16.3,19.6,16.3,19.6l1.3,14.4l7.2,5.2v15.7c0,0,0.7,7.2,6.5,4.6c5.9-2.6,17.6,3.9,17.6,3.9l-2,13l7.2-4.6l7.2-1.3
	c0,0,5.2,3.3,7.2,6.5c2,3.3,6.5,0,9.8-2c3.3-2,7.2-2,11.1,0.7c3.9,2.6,9.1,7.2,9.1,7.2l22.8,2l9.1-6.5l20.2-20.2l18.9,1.3l2,15
	c0,0,0.7,6.5,2,9.8c1.3,3.3,3.3,16.3,2,18.9c-1.3,2.6,0.7,7.2-6.5,8.5c-7.2,1.3-13.7,4.6-13.7,4.6l3.9,225l5.9,84.8h-7.8
	l-10.4-142.9l-1.3-93.9l0.7-63.3l-0.7-9.8l-6.5,2l2,6.5l-5.9-1.3l-3.9-2.6l-9.8,8.5l-13,2.6l-5.9-3.3c0,0-5.9,9.1-8.5,7.2
	s-14.3-4.6-14.3-4.6l-37.8,4.6h-32.6l-4.6-9.1l-9.8-4.6L520,290.8l7.8,22.8l13,22.8l39.1,64.6l22.8,25.4c0,0,17.6,18.3,18.3,20.9
	c0.7,2.6,0,14.4,0,14.4l21.5,19.6l9.8,21.5l14.3,45l12.4,25.4l2.6,18.9c0,0,22.8,20.2,25.4,21.5c2.6,1.3,17.6,32,17.6,32l4.6,9.8
	l35.9,21.5l5.6,3.1l82.5,38.7l36.5,15l3.3,7.8l-33.9,19.6L747,695.9l-108.9-62l-21.5-13.7l-4.6-46.3l-35.9-44.4l-14.3-22.8
	l-16.3-28.7l-2.6-18.3l-18.9-15l-19.6-17.6l-5.9-9.8l-2.6,42.4c0,0-5.9,13-7.2,15.7c-1.3,2.6,3.3,25.4,3.3,28.7
	c0,3.3,7.2,28.7,7.8,31.3c0.7,2.6,7.8,30,7.8,30s11.7,22.8,15.7,26.1c3.9,3.3,67.8,50.9,67.8,50.9l21.5,11.1l11.7-1.3l5.9,13
	l-52.8,1.3L441.1,557l-96.5-78.9l39.1,3.3l51.5,41.7l-2-24.8l-9.1-10.4l10.4-6.5l-1.3-7.2l-5.2-13l-4.6-55.4l0.7-20.2l-43-15.7
	c0,0-16.3-13.7-17.6-17c-1.3-3.3-10.4-27.4-10.4-27.4l8.5-24.1l6.5-28l1.3-22.2L72.5,349.6l-0.7,15l-12.4-9.1l-17,6.5l-6.5-7.8
	l22.2-3.9l2.6-16.3c0,0,9.8,1.3,11.1,5.2C73.2,343,370,237.4,369.3,234.7L369.3,234.7z"/>
</svg>
